HIERARCHY
ROOT hip
{
	OFFSET 0.000000 0.000000 0.000000 
	CHANNELS 6 Xposition Yposition Zposition Xrotation Zrotation Yrotation
	JOINT abdomen
	{
		OFFSET 0.000000 3.402643 0.000000 
		CHANNELS 3 Xrotation Zrotation Yrotation
		JOINT chest
		{
			OFFSET 0.000000 8.438565 -0.680529 
			CHANNELS 3 Xrotation Zrotation Yrotation
			JOINT neck
			{
				OFFSET 0.000000 10.207942 -0.272212 
				CHANNELS 3 Xrotation Zrotation Yrotation
				JOINT head
				{
					OFFSET 0.000000 3.130431 0.000000 
					CHANNELS 3 Xrotation Zrotation Yrotation
					End Site
					{
						OFFSET 0.000000 3.130435 0.000000 
					}
				}
			}
			JOINT lCollar
			{
				OFFSET 3.470700 6.669187 -0.816635 
				CHANNELS 3 Yrotation Zrotation Xrotation
				JOINT lShldr
				{
					OFFSET 3.198488 0.000000 0.000000 
					CHANNELS 3 Zrotation Yrotation Xrotation
					JOINT lForeArm
					{
						OFFSET 10.139888 0.000000 0.000000 
						CHANNELS 3 Yrotation Zrotation Xrotation
						JOINT lHand
						{
							OFFSET 8.370511 0.000000 0.000000 
							CHANNELS 3 Zrotation Yrotation Xrotation
							End Site
							{
								OFFSET 4.083176 0.000000 0.000000 
							}
						}
					}
				}
			}
			JOINT rCollar
			{
				OFFSET -3.470700 6.669187 -0.816635 
				CHANNELS 3 Yrotation Zrotation Xrotation
				JOINT rShldr
				{
					OFFSET -3.198488 0.000000 0.000000 
					CHANNELS 3 Zrotation Yrotation Xrotation
					JOINT rForeArm
					{
						OFFSET -10.139888 0.000000 0.000000 
						CHANNELS 3 Yrotation Zrotation Xrotation
						JOINT rHand
						{
							OFFSET -8.370511 0.000000 0.000000 
							CHANNELS 3 Zrotation Yrotation Xrotation
							End Site
							{
								OFFSET -4.083176 0.000000 0.000000 
							}
						}
					}
				}
			}
		}
	}
	JOINT lThigh
	{
		OFFSET 5.308129 -1.633274 1.361059 
		CHANNELS 3 Xrotation Zrotation Yrotation
		JOINT lShin
		{
			OFFSET -2.041588 -20.007561 0.000000 
			CHANNELS 3 Xrotation Zrotation Yrotation
			JOINT lFoot
			{
				OFFSET 0.000000 -19.190928 -1.224953 
				CHANNELS 3 Xrotation Yrotation Zrotation
				End Site
				{
					OFFSET 0.000000 -2.449906 4.627600 
				}
			}
		}
	}
	JOINT rThigh
	{
		OFFSET -5.308129 -1.633274 1.361059 
		CHANNELS 3 Xrotation Zrotation Yrotation
		JOINT rShin
		{
			OFFSET 2.041588 -20.007561 0.000000 
			CHANNELS 3 Xrotation Zrotation Yrotation
			JOINT rFoot
			{
				OFFSET 0.000000 -19.190928 -1.224953 
				CHANNELS 3 Xrotation Yrotation Zrotation
				End Site
				{
					OFFSET 0.000000 -2.449906 4.627600 
				}
			}
		}
	}
}
MOTION
Frames: 19
Frame Time: 0.033333
-1.419103 44.813744 -41.923382 7.724609 -8.789063 48.691406 23.212889 4.794922 -1.074219 -15.908202 -0.566406 -2.011815 -13.457031 -2.099609 -20.908205 5.771485 7.353516 -21.414764 -1.621094 7.460938 0.371086 -90.878906 -41.259766 64.817780 -64.023438 -3.378906 -40.449219 12.792969 7.246094 1.407483 -4.218750 1.318359 -0.097656 57.753902 37.343750 -5.712890 69.882813 3.554688 -50.908810 -20.097658 -6.250000 1.923828 -20.009581 22.733940 17.395134 44.387749 -0.891707 -2.800117 -20.150986 12.315924 -0.307909 -42.336994 -20.375498 -13.620028 45.623222 0.166020 2.576155 -6.347847 2.031115 5.104056 
-1.448864 44.786354 -41.966179 7.900391 -8.798828 48.660614 23.388670 4.794922 -1.074219 -16.259764 -0.556641 -2.021583 -13.281250 -2.451172 -20.879324 5.947265 7.529296 -21.582033 -1.601563 7.460938 0.205074 -90.888672 -41.093746 64.749443 -64.218750 -3.232422 -40.224056 12.626953 7.421875 1.416016 -4.218750 0.966797 -0.117188 58.076168 37.167965 -5.771485 69.775391 3.525391 -50.957027 -19.765623 -6.611329 1.952001 -20.332045 22.870970 17.827259 44.751144 -0.776790 -2.755064 -20.411022 11.838360 -0.554686 -42.875431 -20.562244 -13.334968 45.799240 0.156147 2.570552 -6.047408 2.385259 5.462198 
-1.470205 44.739994 -42.072651 8.085938 -8.798828 48.504364 23.388670 4.794922 -1.074219 -16.787111 -0.556641 -2.041019 -12.939453 -2.802734 -20.840322 5.771485 7.529296 -21.414732 -1.777344 7.460937 0.224609 -90.888672 -40.927738 64.563911 -64.287117 -3.310547 -40.371098 12.626954 7.597657 1.417309 -4.218750 0.615234 -0.146484 58.291012 36.953125 -6.064452 69.990234 3.574219 -50.849609 -19.511719 -7.568360 2.304688 -20.524988 23.070894 18.676329 45.444607 -0.589209 -2.755263 -21.256731 11.219338 -0.638478 -43.356186 -20.534941 -12.560861 46.150497 0.165931 2.590551 -5.711391 2.187283 5.532384 
-1.465581 44.636490 -42.275398 8.251954 -8.623047 48.514156 23.564451 4.677734 -1.289063 -17.138672 -0.556641 -2.226661 -12.949218 -2.958984 -20.645203 5.771484 7.705078 -21.416016 -1.777344 7.636718 0.233077 -91.093750 -41.005859 64.505310 -64.414063 -3.251953 -39.931087 12.119141 8.310547 1.446726 -4.228516 0.273438 -0.166062 58.427734 36.826176 -5.830078 70.087891 3.662110 -50.146488 -19.345703 -7.753907 2.343750 -21.051455 23.244516 19.278809 46.657677 -0.902033 -2.769420 -21.903545 8.960492 -1.579846 -43.997261 -20.659576 -11.346329 46.677937 0.348776 2.660506 -5.403374 1.838623 5.178424 
-1.407247 44.470261 -42.605595 8.437499 -8.271484 48.134769 23.916014 4.677734 -1.289062 -17.490234 -0.556641 -2.236332 -12.792969 -3.291016 -20.439451 5.947266 8.056641 -21.230471 -1.777344 7.460937 0.224609 -91.298828 -41.093750 64.453125 -64.404297 -3.310547 -39.482422 11.953125 8.496094 1.484375 -4.404297 0.097656 -0.185563 58.085938 37.119137 -5.156250 69.316406 3.505859 -49.922474 -19.189453 -6.152344 1.825127 -21.628258 23.880598 19.659170 48.766651 -0.570356 -3.069750 -22.316500 5.602554 -3.011345 -45.142300 -21.442673 -10.283673 47.364410 0.166063 2.801541 -4.917375 1.591477 5.225801 
-1.258922 44.257912 -43.072269 8.427734 -7.734375 47.459629 24.101564 4.902344 -1.405416 -17.841799 -1.074219 -2.246094 -12.460938 -3.095703 -20.283731 5.947266 7.705078 -21.054686 -1.621094 7.636755 0.379561 -91.308594 -41.240238 64.974030 -64.667969 -3.339844 -39.775391 11.787109 8.847656 1.494141 -4.404297 -0.097656 -0.019515 58.476563 36.923828 -4.531250 68.544922 3.457031 -51.143162 -19.238283 -4.375000 1.298828 -21.609926 24.205801 19.106171 51.403873 -0.570659 -2.876207 -22.922119 3.023507 -3.808112 -45.609791 -21.558968 -9.118041 47.555954 -0.029301 2.563972 -4.075978 2.049715 5.433917 
-1.015627 44.033348 -43.666996 8.261718 -7.392579 46.201168 24.101563 5.019532 -1.181640 -18.369141 -1.250000 -2.265838 -12.158202 -3.212890 -19.736877 6.132813 7.363280 -20.517580 -1.445313 7.285157 0.351562 -90.683594 -41.328121 65.585938 -64.873047 -3.242188 -40.390900 11.689452 10.048828 1.679688 -4.228516 -0.449219 -0.048828 59.296875 36.533203 -4.053064 68.378906 3.564453 -52.910763 -19.355467 -3.603516 0.956419 -20.710516 24.652454 17.929182 54.372822 -0.110347 -3.300523 -23.570885 3.935433 -3.408932 -46.380920 -21.969261 -7.501137 47.374180 0.156226 2.797896 -2.985959 2.181243 5.237207 
-0.681037 43.828823 -44.363331 8.085938 -6.865235 44.471493 23.935547 5.234375 -1.297937 -18.720703 -1.425781 -2.275391 -11.357421 -3.125000 -18.857952 6.308594 7.011719 -19.628904 -1.083984 7.109375 0.302734 -89.433594 -41.328125 68.310547 -65.273438 -3.193359 -39.423832 12.431641 10.175780 1.808366 -4.228516 -1.142578 -0.097462 61.113281 35.087891 -2.924072 67.949219 3.515625 -53.369743 -18.808594 -3.486328 0.810538 -18.797604 25.221226 16.268543 57.019985 -0.433015 -3.239110 -24.714537 7.137813 -1.901306 -46.713356 -21.598701 -5.676003 46.501793 0.156218 2.602718 -1.782722 3.302739 5.281111 
-0.279695 43.644218 -45.120007 7.373046 -6.503906 42.539063 23.593750 5.292969 -1.464844 -19.072266 -1.416016 -2.461179 -10.400392 -2.812500 -17.656248 6.660156 6.308593 -18.388672 -0.556641 6.943371 0.233194 -87.910156 -41.181641 71.946693 -66.347656 -3.183594 -38.632813 13.310547 11.630860 2.296892 -4.570313 -2.031250 0.009766 63.867188 32.714844 -1.074219 67.226563 3.603516 -54.189457 -17.705078 -2.714844 0.546410 -15.808111 25.432135 15.180573 58.086422 0.082845 -3.215620 -23.076805 9.955608 -1.030245 -46.695225 -21.062471 -3.962699 45.262890 0.175716 2.544155 -0.252751 3.577187 4.928335 
0.180218 43.441593 -45.914040 6.679688 -5.810547 40.584949 23.242188 5.117188 -2.069441 -19.423826 -1.240234 -3.008024 -9.306641 -2.470703 -16.103516 7.548828 5.781250 -16.582033 0.126953 7.294919 0.321026 -85.927734 -40.429688 75.332031 -67.939453 -3.193359 -37.519535 13.076173 14.531251 2.912608 -5.097656 -2.558594 -0.058158 66.894531 28.749998 0.957031 66.923828 3.554688 -55.292965 -17.294924 -0.927734 0.068359 -11.775812 24.708912 14.450903 56.500404 0.065438 -3.294594 -18.324072 10.480645 -1.554254 -46.902958 -20.556261 -1.889196 44.209068 0.165869 2.492454 0.916755 4.183461 5.087255 
0.689692 43.156086 -46.717197 5.976563 -4.921875 38.496094 22.890625 4.667969 -2.958984 -19.423826 -1.240234 -3.711149 -8.574218 -2.099609 -14.375356 8.427734 5.615235 -14.784201 0.986328 8.007812 0.369733 -84.580078 -40.000004 79.632401 -69.130859 -3.056640 -34.872528 11.767578 16.914064 2.844640 -5.800781 -2.753906 0.068829 69.550781 23.173828 3.148374 67.011719 3.652344 -58.203121 -18.681641 0.546875 -0.351563 -6.874521 23.118727 14.085807 52.817421 -0.140795 -3.085629 -17.370680 9.654216 -2.358736 -46.877068 -20.202194 0.419004 44.045464 0.341839 2.736609 1.925490 4.435988 4.750977 
1.188969 42.731384 -47.464157 5.087891 -3.691406 36.561874 22.705078 3.984375 -4.286431 -19.248045 -1.240234 -4.756070 -7.314453 -1.875000 -12.451491 8.964845 5.615235 -12.811544 1.337891 9.062501 0.291431 -84.355469 -39.814453 83.987885 -69.873047 -3.105469 -32.353512 7.871093 19.843750 2.031250 -6.152343 -2.578125 0.068799 71.015625 15.449219 4.152992 67.763672 3.554688 -64.756462 -20.615236 1.533203 -0.625000 -2.159694 20.783459 16.233482 49.294529 -0.485437 -3.049954 -22.519573 9.939346 -1.104241 -47.981926 -20.046926 3.085064 45.623581 0.166019 2.566476 1.565117 5.333954 4.713114 
1.679947 42.171165 -48.109035 4.042969 -2.119128 34.980301 22.509764 3.193359 -5.839844 -18.720703 -1.601562 -5.966797 -6.748047 -1.826172 -10.507813 9.492188 5.966796 -10.849609 1.123047 9.941407 0.467064 -84.921875 -40.878906 88.626427 -70.292969 -3.066406 -30.155729 2.607422 22.509768 0.277178 -6.328125 -2.226563 0.097656 71.347656 7.148438 4.757076 67.792969 3.544922 -71.181641 -21.347658 3.398438 -1.328125 1.375153 18.394825 18.411364 47.736492 -0.485053 -3.146540 -28.835566 12.683599 1.909649 -49.142841 -20.026999 5.134228 49.115635 -0.163477 3.127446 -0.580001 9.959833 4.950875 
2.152072 41.562218 -48.615417 3.164063 -0.537109 33.740139 22.490234 2.509765 -7.734375 -18.027342 -2.480469 -7.353939 -6.552734 -2.451172 -8.310966 10.371094 6.669922 -8.867188 0.615234 10.458985 0.379087 -87.773438 -42.978516 94.866386 -69.677734 -2.939453 -27.246096 -1.103516 24.921877 -1.255649 -5.800781 -2.207031 -0.058218 71.386719 -1.269531 6.884549 67.119141 3.652344 -76.065079 -23.564451 5.585938 -2.430690 3.795785 15.688671 18.900290 48.274963 -0.670968 -2.903594 -34.431213 14.239961 4.732149 -50.007019 -19.676783 6.835433 53.151062 -0.357486 3.038377 -2.642896 15.680594 5.997640 
2.592067 40.991802 -48.911480 2.109375 1.044922 32.519711 22.636719 2.275391 -9.286721 -17.158203 -3.544922 -8.906249 -7.041016 -3.066406 -6.103516 11.601563 7.548828 -6.523438 -0.244141 10.458984 0.371094 -93.154297 -45.429688 103.955078 -68.320313 -2.587891 -22.802734 -5.742188 26.728516 -3.359375 -4.921875 -2.207031 -0.019155 71.542969 -9.169922 9.062499 65.244141 3.554688 -83.554688 -23.505859 4.550781 -1.932817 5.345519 13.947923 18.641342 50.021965 -0.688853 -2.992849 -37.613213 15.346962 6.437488 -50.542423 -18.983301 8.012415 57.198166 -0.711139 3.020229 -4.940780 14.157429 6.272912 
2.991749 40.524067 -48.984158 1.230469 2.460938 30.937502 22.597654 2.421875 -10.898438 -16.113281 -4.609375 -10.458984 -8.603517 -3.984375 -3.515625 13.193360 8.076172 -3.983003 -0.957031 10.273437 0.498047 -100.419922 -46.943359 113.557320 -66.484375 -2.392578 -16.572266 -12.373047 27.851563 -6.767578 -3.867188 -2.558594 0.000000 72.519531 -15.712892 10.358684 63.525391 3.271484 -90.634766 -23.603516 1.035156 -0.634590 7.089790 12.373088 19.257105 51.438660 -0.345942 -2.920287 -39.366871 15.653868 7.272609 -50.995499 -18.093792 9.795596 60.169369 -0.885277 3.393190 -6.069880 9.788003 6.007175 
3.327051 40.143829 -48.869270 0.341797 3.339840 29.004498 22.548828 3.291016 -12.460938 -15.595702 -5.664063 -12.198230 -10.869141 -4.326171 -0.635502 14.609373 8.076172 -1.103516 -1.464844 10.449220 0.419922 72.177750 -133.310547 -58.971951 -64.990234 -2.041015 -9.872700 -19.638674 27.646482 -10.234375 -2.988281 -3.085938 0.010291 74.755859 -21.982422 10.670172 63.027340 3.261719 -93.720703 -23.085939 0.751953 -0.439454 9.012622 11.494449 20.644842 51.949314 -0.345822 -3.119881 -40.332928 15.962202 8.206456 -52.480949 -16.707844 11.410275 63.318878 -1.083051 3.412184 -4.391429 7.447040 5.434897 
3.602003 39.827969 -48.644707 0.000000 3.681641 27.060545 22.148439 4.501953 -13.915070 -15.078126 -6.191407 -14.121094 -13.300781 -4.638672 2.430851 15.849609 7.724609 2.119140 -1.289063 10.625000 0.390625 66.054703 -133.750000 -51.647678 -65.068359 -1.923828 -6.806314 -23.359375 27.255859 -12.109374 -2.109375 -3.261719 0.058594 77.177734 -27.851563 8.481766 63.662109 3.037110 -95.176300 -20.634766 -0.058594 -0.136719 10.753263 10.649801 22.174168 52.115589 -0.174497 -3.048363 -41.127617 16.418352 8.809611 -55.110657 -15.126659 11.602162 68.084671 -1.074221 3.248214 -1.202071 4.411022 4.902174 
3.820399 39.560364 -48.337269 0.166016 3.681640 24.970701 21.572266 5.820313 -15.174791 -15.244139 -5.839844 -15.528339 -16.250002 -5.117188 5.517578 16.904299 7.011719 4.981661 -1.142578 10.976563 0.535250 61.582050 -134.843750 -46.305752 -66.259766 -1.953125 -6.347656 -23.095703 28.203125 -12.329370 -1.933594 -3.789063 0.048828 78.984375 -32.460938 5.395149 64.765625 3.173828 -95.253906 -18.925781 -1.826172 0.468750 11.693300 9.802367 23.306787 51.965130 -0.516034 -3.015721 -41.953480 17.095146 10.000467 -59.282108 -13.358935 9.788158 72.791893 -1.767167 3.454710 3.138419 0.026614 4.815710 
